<!--?xml version="1.0" encoding="utf-8"?-->
<!-- Generator: Adobe Illustrator 22.1.0, SVG Export Plug-In . SVG Version: 6.00 Build 0)  -->
<svg version="1.1" id="_x34_" xmlns="http://www.w3.org/2000/svg" xmlns:xlink="http://www.w3.org/1999/xlink" x="0px" y="0px" viewBox="0 0 800 123.2" style="enable-background:new 0 0 800 123.2;" xml:space="preserve">
<style type="text/css">
	.stblack{fill:#000000;}
</style>
<g>
	<path class="stblack" d="M33.4,20.5c-1.5-2.8-2.6-5.1-3.6-7c-0.5-0.9-0.9-1.8-1.4-2.4c-0.4-0.7-0.8-1.3-1.3-1.7c-0.9-0.8-1.9-1.1-3-0.7
		c0,0-1.3,0.2-2.5,1.1c-0.6,0.5-1.1,1.2-1.4,2.1c-0.3,1-0.4,2.3,0.1,3.9c0.3,0.8,0.6,1.9,1.2,3.1c0.6,1.2,1.2,2.5,2.1,3.9
		c0.9,1.3,1.9,2.8,3.1,4.1c0.6,0.7,1.2,1.3,1.9,2c0.7,0.6,1.4,1.2,2.1,1.8c0.4,0.3,1,1.1,2.2,2.2c0.5,0.6,1.2,1.2,1.9,2
		c0.8,0.7,1.6,1.5,2.5,2.4c0.9,0.9,2,1.8,3.1,2.8c1.2,1,2.4,1.9,3.8,3c2.8,2,5.9,4.2,9.5,6.1c3.6,2,7.6,3.9,11.9,5.6
		c4.4,1.6,9,3,14,4.2c9.9,2.3,20.6,3.4,31.5,3.7c10.9,0.3,21.9-0.1,32.5-0.7c10.6-0.6,20.8-1.4,30.1-2.2c18.6-1.6,33.5-3.1,40.6-3.8
		c3.5-0.3,9-0.9,15.9-1.6c6.9-0.7,15.3-1.4,24.5-2.1c9.3-0.6,19.4-1.2,29.9-1.3c10.5-0.1,21.4,0.2,32,1.4c1.3,0.2,2.6,0.3,3.9,0.5
		l2,0.3l1.9,0.3c1.3,0.2,2.6,0.4,3.9,0.7c1.3,0.2,2.5,0.6,3.8,0.8c2.5,0.5,4.9,1.3,7.4,1.9c1.2,0.3,2.4,0.8,3.5,1.2
		c1.2,0.4,2.3,0.8,3.4,1.3c1.1,0.5,2.2,0.9,3.3,1.4c0.6,0.2,1.1,0.5,1.6,0.8c0.5,0.3,1,0.5,1.5,0.8c2.1,1,3.9,2.3,5.8,3.4
		c0.9,0.6,1.8,1.3,2.6,1.9c0.8,0.7,1.7,1.2,2.5,1.9c1.5,1.4,3.1,2.6,4.4,4c2.8,2.7,4.9,5.5,6.6,8c0.8,1.3,1.6,2.6,2.2,3.8
		c0.3,0.6,0.6,1.2,0.9,1.8c0.3,0.6,0.5,1.1,0.7,1.7c1.8,4.3,2.2,7.3,2.2,8.2l0,1.2c0,0.4,0,0.8-0.1,1.2c0,0.8,0,1.6,0,2.4
		c-0.1,1.6-0.1,3-0.1,4.4c0,1.4,0,2.7,0,3.8c0,1.1,0,2.1,0.1,2.9c0.1,1.5,0.5,2.5,1.1,3.3c0.5,0.8,1.2,1.3,1.9,1.6
		c0.6,0.3,1.1,0.4,1.6,0.5c0.3,0.3,0.8,0.7,1.3,1c1.3,0.7,3.3,1.1,5.8-0.4c2.7-1.6,7.9-5.6,12.9-10.3c1.3-1.1,10.5-6.9,25.4-12.1
		c7.4-2.6,16.2-5,25.9-6.9c4.8-0.9,9.9-1.8,15-2.5c5.2-0.7,10.5-1.2,15.8-1.7c10.7-0.9,21.6-1.4,32.2-1.8c5.3-0.2,10.5-0.4,15.6-0.6
		c5.1-0.2,10-0.4,14.6-0.6c18.7-0.9,33.7-1.8,40.8-2.3c7.1-0.5,22.2-1.7,40.8-3.9c9.3-1.1,19.5-2.4,30-4c10.5-1.6,21.4-3.5,32-5.5
		c2.7-0.5,5.3-1,7.9-1.6c2.7-0.6,5.4-1.3,7.9-2.1c5.1-1.6,10-3.6,14.6-5.7c9.2-4.2,17.3-8.7,24.3-12.7c0.9-0.5,1.7-1,2.6-1.5
		c0.9-0.5,1.7-1,2.5-1.5c1.6-1,3.1-2,4.5-3.1c2.8-2.1,5.1-4.1,6.9-5.9c0.5-0.5,0.9-0.9,1.3-1.3c0.4-0.4,0.8-0.8,1.1-1.2
		c0.4-0.4,0.7-0.8,1-1.1c0.3-0.4,0.6-0.7,0.8-1c1.1-1.2,1.7-2,2.1-2.4c2.7-2.5,5-5.6,6.4-8.6c0.4-0.7,0.7-1.5,1-2.2
		c0.3-0.7,0.6-1.4,0.7-2c0.3-1.3,0.6-2.5,0.7-3.4c0.2-1.7-0.1-3-0.6-4c-0.5-0.9-1.2-1.5-1.9-1.8c-1.4-0.7-2.7-0.6-2.7-0.6
		c-1.1-0.1-2,0.3-2.7,1.3c-0.7,1-1.2,2.4-1.9,4.4c-0.2,0.5-0.3,1-0.5,1.5c-0.2,0.5-0.4,1.1-0.6,1.7c-0.1,0.3-0.2,0.6-0.3,0.9
		c-0.1,0.3-0.3,0.6-0.4,1c-0.3,0.6-0.5,1.3-0.8,2c-1.2,2.8-2.9,6-5.3,9.4c-0.8,1.2-3,3.9-6.7,7.2c-1.9,1.6-4.1,3.4-6.9,5.1
		c-2.8,1.8-6,3.7-9.5,5.7c-6.9,4-14.8,8.4-23.6,12.1c-4.4,1.8-9,3.5-13.8,4.7c-1.2,0.3-2.5,0.5-3.7,0.8c-1.3,0.3-2.5,0.5-3.8,0.8
		c-2.5,0.5-5.1,1.1-7.6,1.5c-20.4,4-41.4,7.1-58.8,9.1c-17.4,2-31.3,3.1-37.5,3.5c-6.2,0.5-20.1,1.4-37.6,2.2
		c-8.8,0.4-18.5,0.8-28.6,1c-10.1,0.3-20.7,0.6-31.1,1.2c-10.5,0.6-20.8,1.6-30.6,3.1c-9.7,1.4-18.8,3.4-26.7,5.6
		c-15.8,4.3-26.6,9.7-29.6,10.9c-6.8,3-12.2,5.9-15.9,8.6c0-0.3,0-0.6,0-0.9c-0.1-1.5-0.2-3.2-0.5-5c-0.5-3.6-1.6-7.9-3.5-12.4
		c-0.6-1.6-2.1-5.3-5.2-10.1c-3.1-4.8-8-10.4-14.6-15.5c-0.8-0.6-1.7-1.2-2.6-1.9c-0.9-0.6-1.7-1.3-2.7-1.8c-1-0.6-1.9-1.2-2.9-1.8
		c-1-0.6-2.1-1.1-3.1-1.6c-4.2-2.2-8.8-3.8-13.6-5.3c-9.6-2.8-20-4.3-30.5-5.1c-10.5-0.8-21.1-0.8-31.2-0.5
		c-10.1,0.3-19.8,0.9-28.6,1.6c-17.5,1.4-31.3,2.9-37.5,3.4c-6.2,0.7-20,2-37.4,3.6c-17.5,1.5-38.6,3.1-59.3,2.8
		c-10.3-0.1-20.5-0.9-29.8-2.7c-9.3-1.8-17.9-4.5-24.7-7.9c-7-3.3-12.3-7.2-16.2-10.5c-1-0.8-1.8-1.6-2.6-2.3c-0.7-0.7-1.5-1.4-2-2
		c-1.1-1.3-2-2.2-2.4-2.8C36.8,26.4,35,23.3,33.4,20.5z"></path>
</g>
</svg>
