<!--?xml version="1.0" encoding="utf-8"?-->
<!-- Generator: Adobe Illustrator 22.1.0, SVG Export Plug-In . SVG Version: 6.00 Build 0)  -->
<svg version="1.1" id="_x34_" xmlns="http://www.w3.org/2000/svg" xmlns:xlink="http://www.w3.org/1999/xlink" x="0px" y="0px" viewBox="0 0 800 515.3" style="enable-background:new 0 0 800 515.3;" xml:space="preserve">
<style type="text/css">
	.stblack{fill:#000000;}
	.st0{fill:#FFFFFF;}
</style>
<g>
	<path class="st0" d="M527.6,405c-20.4,3.3-41.4,7.5-63.2,9.2c-20.7,1.6-42.1,0.8-63.9,0.8c-17.6,0-35,1-52-0.1
		c-17.7-1.1-35.1-2.1-51.9-4.3c-17.7-2.3-34.9-5.3-51.4-8.7c-17.6-3.7-34.1-9.3-50.1-14.3c-17.3-5.4-33.5-11.5-48.6-18.3
		c-16.6-7.5-31.3-16.5-45-25.7c-15.2-10.2-29.2-20.4-40.2-32.6c-12.1-13.4-21.6-27.9-28-43.5C26.7,251.8,22,234.9,22,216.8
		c0-18,5.6-34.6,12.1-50.4c6.4-15.7,14.1-31.4,26.2-44.8c11.1-12.2,25.2-22.7,40.4-32.9c13.7-9.2,28.5-18.5,45.2-26
		c15.1-6.8,32.4-10.3,49.6-15.7c16-5,32.1-12.2,49.6-15.8c16.5-3.5,34-4.6,51.6-6.9c16.8-2.2,34.1-4.5,51.7-5.6
		c17-1,34.4-0.7,52-0.7c17.6,0,34.9,1.6,51.9,2.6c17.7,1.1,35,2.1,51.8,4.2c17.7,2.3,35.1,3.6,51.6,7c17.6,3.7,34.6,7.6,50.6,12.5
		c17.3,5.4,33.4,12,48.6,18.8c16.6,7.5,30.9,17.5,44.6,26.7c15.2,10.2,28.2,21.2,39.3,33.4c12.1,13.4,23.7,26.5,30.1,42.2
		c6.5,15.8,8.2,33.2,8.2,51.2c0,17.6-3.2,34.1-9.4,49.6c-6.2,15.4-15,29.8-26.7,43c-10.7,12.1-22.8,24.2-37.6,34.4
		c-13.3,9.2-28.5,17.2-44.6,24.7c-14.8,6.8-31.2,11.5-48,16.9"></path>
	<path class="stblack" d="M525.6,400.2c-28.7,4.7-56.9,9.7-86.1,10.1c-15.1,0.2-30.3-0.2-45.4-0.1c-14.9,0.1-29.9,0.8-44.8,0.1
		c-30.8-1.4-61.4-4.6-91.8-10.3c-27.7-5.2-54.8-13.4-81.3-22.8c-26.7-9.5-51.6-21.8-75.2-37.5C76.6,323.4,54.6,305,40.3,279
		c-14.5-26.4-20-57-11.7-86.1c7.3-25.8,19.5-52.7,38.8-71.7c18.9-18.6,42.6-33.8,65.9-46.4c25.1-13.5,52.8-18.6,79.4-28.1
		c13.6-4.9,27.1-9.5,41.3-12c14.8-2.6,29.8-3.7,44.7-5.6c29.3-3.7,58.1-6.4,87.7-6.3c30,0.1,59.9,1.9,89.9,4.1
		c30.3,2.2,61,5.4,90.7,11.9c54.9,12,106.7,32.7,150.8,68.3c10.6,8.6,20,18.2,28.9,28.5c10.4,11.9,20,24.6,24.1,40.1
		c7.3,27.7,5.2,59.6-5.4,86.1c-20.2,50.4-67.9,85.7-116.9,105.3c-13,5.2-26.4,9.1-39.7,13.3c-1.8,0.6,1.8,10.5,3.9,9.8
		c29-9.3,56.8-19.2,82.9-35.3c23.2-14.2,44.2-33.8,59.5-56.3c29.4-43.2,34.8-107.9,4.8-152.4C728.3,99,677,66.3,624.7,46.5
		c-58.5-22.1-120.9-27.1-182.8-31.2c-31.7-2.1-63.7-3.3-95.4-1.4c-16.4,1-32.7,3.1-48.9,5.2c-15.8,2-31.8,3.2-47.5,6
		c-15.2,2.6-29.4,7.7-43.9,12.9c-14.3,5.1-29,8.7-43.5,13.1c-28.2,8.6-53.7,24.9-77.3,42.1c-10.9,7.9-21.3,16.6-30,27
		c-9.2,11-15.9,23.9-21.6,37c-10.9,25.5-17.3,51-11.8,78.8c5.1,26.1,16.8,51.2,33.6,71.9c17.7,21.8,41.4,37.9,65.3,52.2
		c26.1,15.6,54.5,25.8,83.4,35c29.8,9.4,59.9,16.1,90.9,20.2c31.2,4.2,62.7,5.4,94.1,4.9c31.9-0.5,63.7,1.3,95.4-2.8
		c15-2,29.9-4.8,44.9-7.2C531,409.7,528.2,399.7,525.6,400.2z"></path>
	<path class="st0" d="M654.2,453.3c0,12.1-10.2,19.2-24.3,19.2c-14.1,0-26.8-7-26.8-19.2c0-12.1,12.7-18.7,26.8-18.7
		C644,434.6,654.2,441.2,654.2,453.3z"></path>
	<path class="stblack" d="M651.9,449.4c-0.5,10.2-8,16.1-17.5,17.7c-7.5,1.3-24.7,0.5-28.4-8.3c-4.2-9.7,10.4-16.9,17.4-18.4
		C630.2,438.9,651.4,438.3,651.9,449.4c0.1,2.3,0.8,5,2.2,6.9c0.4,0.5,2.6,3.4,2.5,1c-0.6-13.3-8.1-24.7-21.9-27
		c-13.4-2.2-33.7,2.4-33.9,19.1c-0.2,14.2,10.7,25.2,24.2,27.4c14.4,2.4,30.9-3,31.6-19.6c0.1-2.2-0.9-5.1-2.2-6.9
		C653.9,449.8,652,447,651.9,449.4z"></path>
	<path class="st0" d="M607.4,379c3,4.4,4.7,10.3,4.7,16.4c0,20.3-20,32.5-43.6,32.5c-23.6,0-43.2-12.2-43.2-32.5"></path>
	<path class="stblack" d="M607.2,381.9c6.1,10.1,0.7,23.3-7.3,30.2c-6.6,5.8-15.3,8.8-23.8,10.1c-15.8,2.4-47.9-1.5-48.5-23c-0.1-2.3-0.8-5-2.2-6.9
		c-0.4-0.5-2.6-3.4-2.5-1c0.9,28.6,26.4,43.3,53,41.1c13.2-1.1,27.4-6.4,34.5-18.2c7.1-11.9,4-27-2.8-38.2
		C604.1,370.4,606,379.8,607.2,381.9z"></path>
	<path class="st0" d="M704.7,486.1c0,8.2-8.8,11.3-18.3,11.3c-9.5,0-16-3.2-16-11.3c0-8.2,6.5-11.8,16-11.8
		C695.9,474.3,704.7,477.9,704.7,486.1z"></path>
	<path class="stblack" d="M702.4,482.1c-0.5,6.8-7,9.3-12.9,10.1c-3.9,0.5-17.2,1.2-16.4-4.8c0.7-5.3,7-7.5,11.5-8c3.7-0.5,7.6-0.3,11.2,0.7
		c1.1,0.3,2.3,0.7,3.4,1.2c0.9,0.4,1.8,0.9,2.6,1.5c1.1,1,1.3,1.1,0.7,0.3c0.1,1.9,1.2,5.7,2.8,6.9c1.3,0.9,2.1,1.7,1.9-0.8
		c-0.8-10.6-7.6-18.2-18.2-19.5c-9.5-1.2-20.9,1.5-20.8,12.9c0.1,8.8,5.3,17.5,14.3,19.2c9.5,1.8,23.8,0,24.7-11.8
		c0.2-2.2-1-5.1-2.2-6.9C704.4,482.5,702.6,479.8,702.4,482.1z"></path>
</g>
</svg>
