<svg xmlns="http://www.w3.org/2000/svg" viewBox="0 0 1000 1000"><defs><style>.cls-1{fill:#e1c8ad;}.cls-2{fill:#ae9e94;}.cls-3{fill:#8f6852;}.cls-4{fill:#89746c;}.cls-5{fill:#857068;}.cls-6{fill:#231815;}</style></defs><g id="レイヤー_1" data-name="レイヤー 1"><path class="cls-1" d="M820.64,484.19c-.43,3.3-2.08,6.2-3.54,9.14-1.25,2.49-2.53,5.05-3.84,7.51a24.32,24.32,0,0,0-2.6,5.94c-.33,2.79-.22,5.63-.38,8.43A187.31,187.31,0,0,1,807.7,543c-1.5,11.15-3.6,22.21-5.73,33.24-1.65,10.29-3.84,20.55-7.73,30.24-1.91,4.88-3.89,9.82-6.83,14.19a105.46,105.46,0,0,1-13.68,16.56c-3,2.76-6.31,5.11-9.39,7.75-3.05,2.39-5.83,5.1-8.7,7.69-2.77,2.37-5.71,4.56-8.68,6.66-6.24,4.51-13,9-20.88,9.69a176.86,176.86,0,0,1-22.32.85c-10.19,0-20.41-.14-30.61,0a263.18,263.18,0,0,0-52.56,5.64c-6.08,1.14-12.21,2.27-18.31,3.32-5.17.83-10.43,1.61-15.3,3.62a80.43,80.43,0,0,0-15.46,8.43c-3.35,2.18-6.78,4.3-9.93,6.76-3.78,3.08-7.41,6.37-11.53,9-5,3.14-9,7.52-13.83,10.92-2.18,1.57-4.43,3.19-7.08,3.84-3.82,1.24-7.77-.18-11.58-.76-4.49-.83-9.06-1.66-13.64-1.33-14,1.07-26.72,7.43-39.22,13.28-21.14,9.67-42.39,19.25-63.81,28.3-21,9.18-42.49,17.9-65.12,22.29-10.14,2.25-20.44,5.13-30.92,4.83a137.85,137.85,0,0,1-21.07-2.08c-2.5-.46-5.17-1-7.63-1.67l-1-.27-1-.28-.47-.13c-.63.08-2.49.44-3.16.52-13.44,2.12-27.22-.36-39.84-5.13a91.21,91.21,0,0,1-19.84-9.7c-4.07-2.69-8.74-5.22-10.86-9.82-1-2.19-1.73-4.51-2.93-6.61-5-1.82-11.73-4-13.76-9.32a10.77,10.77,0,0,1,.47-5.62,10.65,10.65,0,0,1,1.1-2c1.16-2.93-.26-6,.28-9a5.35,5.35,0,0,1,2.06-3.08,3.79,3.79,0,0,1,2.61-.51c2.47.1,5,.37,7.43.32,1.55-.05,3.45-.49,4.36-1.87a4.14,4.14,0,0,0,.17-2.84,23.63,23.63,0,0,0-2.33-6.33,49.74,49.74,0,0,0-4.3-7.23A76.5,76.5,0,0,1,189.7,697a52.64,52.64,0,0,1-5.22-11.08c-4.53-14.71-6.95-30-9.09-45.16-1-6.76-2.26-13.52-2.79-20.34a103.82,103.82,0,0,1,2.31-27.06c1.93-10,4.71-19.92,9.54-28.94a24.72,24.72,0,0,0,2.21-5.78,13.9,13.9,0,0,0-.84-5.75c-1.6-4.52-5.06-8.16-7.15-12.47-3.17-6.35-4.94-13.25-7.28-19.91a63.54,63.54,0,0,0-6.76-13.8c-1.89-2.72-4.11-5.22-5.85-8.05a96.12,96.12,0,0,1-8-16.93A138.05,138.05,0,0,1,147,467.17c-.76-3.32-1.57-6.64-2.14-10-1.07-6.23,0-12.64,1.67-18.67a57.8,57.8,0,0,1,3.43-9.8c1.76-3.66,4.43-6.79,6.86-10a68.35,68.35,0,0,1,15.13-15c6.54-4.4,14-7.29,21.19-10.37a106.56,106.56,0,0,1,17.15-5.73c6.09-1.51,12.33-2.93,18.63-2.92a143.91,143.91,0,0,1,23.51,2.47c8,1.14,16,2.42,23.62,5.22,6.72,2.63,12.94,6.43,19.06,10.22A145.21,145.21,0,0,1,308.14,413c5.32,4.68,11.06,8.92,15.94,14.08,8.31,8.37,15.13,18.36,24.84,25.23,4.32,3.24,8.8,6.25,13.18,9.4s9.09,6.67,14.45,8.34c2.53.67,5.59.58,7.58-1.29a11.42,11.42,0,0,0,2.1-5.05,145.21,145.21,0,0,1,3.46-14.48c2.29-7,5.87-13.38,9.36-19.78,3-5.84,7.48-10.76,11.67-15.79,3.57-4.39,6.9-9,10.8-13.1,4.5-4.64,8.8-9.51,13.49-14a42.36,42.36,0,0,1,9.51-6.63,104.63,104.63,0,0,1,12.33-5.12,83.35,83.35,0,0,1,15.07-4.47c11.18-2.11,22.65-1.58,34-1.69,8.24,0,16.51,0,24.72.83,7.79-2.29,16-.59,23.91-1a96.4,96.4,0,0,0,24.59-4.89,52.06,52.06,0,0,1,11.14-9.38c4-2.36,8.57-3.61,13-4.9A121,121,0,0,1,638.37,344c4.36.1,8.75.18,13.09.54s8.54,1.08,12.79,1.59A161.82,161.82,0,0,1,698,353.69c8.75,2.92,17,7.17,25.23,11.26,4.94,2.5,10.21,4.38,14.92,7.32,5.5,3.49,10.47,7.74,15.63,11.71,2.66,2.19,5.37,4.33,7.9,6.67,2.9,2.74,5.67,5.63,8.5,8.44,6.19,5.69,12.31,11.56,17.29,18.38a31.28,31.28,0,0,1,5.95,10.46,35.6,35.6,0,0,1,1.06,4.68,28.58,28.58,0,0,0,2.69,3c2.3,2.27,5.09,4.28,6.19,7.44,1,2.84,1.18,6,2.7,8.67,1.13,1.95,2.53,3.74,3.7,5.66a48.31,48.31,0,0,1,3.37,7.35c.6,3.13,1.11,6.3,1.67,9.44a55.53,55.53,0,0,0,1.34,7.46,2.67,2.67,0,0,0,3.51,2.45c.21,0,.47-.07.69-.07S820.64,484,820.64,484.19Z"/></g><g id="レイヤー_6" data-name="レイヤー 6"><path class="cls-2" d="M813.29,541.81A71.79,71.79,0,0,1,812.08,555c-1.08,5.18-2.68,10.25-4.06,15.35-4.18,12.87-8.86,25.8-16,37.35a153.57,153.57,0,0,1-20.11,25.81C767.5,638,762.52,642,757.74,646a92.31,92.31,0,0,1-14.35,9.8c-4.48,2.72-9.23,5.18-14.44,6.07a173.32,173.32,0,0,1-34,3.26c-6.73,0-13.54.33-20.26-.18a55.38,55.38,0,0,1-17.5-4.24,107.06,107.06,0,0,1-17.7-8.67,77.68,77.68,0,0,1-6.7-4.22c-4.17-3.26-8.16-6.79-12-10.41-5.32-5.15-10.75-10.62-17.8-13.3-14.87-5.57-28,6.6-40.85,12.23a22.25,22.25,0,0,1-3.37,1.23,4.1,4.1,0,0,1-2.35.13c-5.65-2.53-7.15-12.37-8.52-17.84-2.44-10.75-4.36-21.78-9.3-31.75-2-4.24-4.51-8.26-6.75-12.4A104.15,104.15,0,0,0,518.35,555c-4.65-5.23-10.4-9.57-15.61-14.22-4.93-4.43-9.51-9.22-14.19-13.91a153.13,153.13,0,0,0-13.95-12.63c-3.43-2.95-6.74-6-10.29-8.86a136.16,136.16,0,0,0-16.07-10.57,47.47,47.47,0,0,0-14.84-4.76c-7.62-1.25-15.53-1.09-22.95-3.38a57.68,57.68,0,0,1-11.44-6,86,86,0,0,1-10.86-7.89,19.73,19.73,0,0,1-2.94-2.91,9.12,9.12,0,0,1-1.34-4.12c.95-1.65,8.57-19.57,10.13-20.2,5.52-6.81,11.34-13.86,19.05-18.27,8.24-4.54,15.18-7.28,23.53-1.38,4.77,3.24,9.49,7,15.2,8.4,6.09,1.29,11.55-2.54,16.5-5.54a116,116,0,0,1,11.64-6.59c6.46-3.53,10.07-1.13,15.43,2.76,8.29,5.62,13.39,14.42,18.16,23,3,5.07,6,10.37,10.65,14.12,1,.8,2.19,1.71,3.56,1.64,4.72-.58,7.81-5,10.41-8.59a83.79,83.79,0,0,0,13.06-32.37c1.32-6.5,1.22-13.59,4.81-19.39a17.44,17.44,0,0,1,6.88-6.48c3.18-1.88,7-3.05,10.68-2.07,12.26,3.39,21.63,23.15,23.47,34.93,2.06,11.73,2.68,23.76,3,35.65.21,9.77.39,19.66-.14,29.42-1.24,17.52-2.77,35.07-2.55,52.65a17.49,17.49,0,0,0,1,5.22c1.54,3.43,4.08,6.29,6.39,9.22,4.28,5,8.23,10.33,12.89,15,12.7,12.94,44.81,27.77,63,27.46,6.71-.26,12.11-4.82,17.54-8.26,3.8-2.56,7.5-5.41,11.13-8.21,3-2.3,6.16-4.53,8.94-7.1,15.29-14,19.75-35.29,24.3-54.65,5-20,8.88-40.61,17.48-59.5,2.94-6.58,5.54-13.36,8.68-19.84,2-4,4.24-8,6.22-12,.53-1.05,1.06-2.12,1.63-3.14a5.36,5.36,0,0,1,2.08-2.36,9.68,9.68,0,0,1,5.46-.56,13.92,13.92,0,0,1,5.95,1.89,29.43,29.43,0,0,1,8.07,7.26,44.45,44.45,0,0,1,7.7,13.64c1.89,6.18,2.58,12.67,3.18,19.08.52,5.4,1,10.82,1.32,16.25C811.43,505.17,813.46,523.45,813.29,541.81Z"/></g><g id="レイヤー_5" data-name="レイヤー 5"><path class="cls-3" d="M845.48,662.56c.08,4.25-6.33,9.77-9.59,12.16l-.32,2c-4.3,4.9-10.35,7.67-15.94,10.8-6.57,3.54-12.93,7.69-20.11,9.92-6.67,2.14-13.71,2.85-20.67,3.36a73.64,73.64,0,0,1-18.82-.42,48.47,48.47,0,0,1-8.87-2.33c-3-1-5.83-2.44-8.88-3.23s-6.43-1.25-9.64-1.83a24.86,24.86,0,0,0-12.18.14,107.06,107.06,0,0,1-20.83,4.08c-5.72.42-11.49.22-17.23.37-13.34,0-27.08.3-39.8-4.3a24,24,0,0,0-6.51-1.49,31.93,31.93,0,0,0-6.89.65,138,138,0,0,0-13.46,3.23c-4.75,1.32-9.64,2.57-14.6,2.33a52.38,52.38,0,0,1-10.69-1.86c-2-.49-4-1.47-6-1.65-2.37,0-4.77.33-7.12-.19s-5.71-1.84-5.74-4.76A6.53,6.53,0,0,1,573,685.6c1.87-2.15,4-4.05,6.06-6.07a62.51,62.51,0,0,1,11.83-9.89c2-1.3,4.29-2.2,6.39-3.36a12.15,12.15,0,0,0,3.4-2.95,23,23,0,0,0,2.41-4.64,16.91,16.91,0,0,0,1.15-5.89c.5-5.27-.32-10.55-.79-15.8s-1.36-10.8.92-15.68c1-2,2.32-2,4.3-1.46a18.43,18.43,0,0,0,5.41.73c1.74-.15,2.22-1.59,2.12-3.1,0-1.33-.08-2.7-.16-4-.38-7.19-1.2-15.58,3.85-21.42,5.33-5.43,11.62-3.18,17.79-.74,5.36,2.07,10.73,4.35,16.16,6.25,6.23,2.27,13.18,3.79,19.65,1.62a29.24,29.24,0,0,0,12.67-7.81c4.74-5,8.46-10.9,12.64-16.31,4.45-5.76,11.31-13.53,18.81-7.51,9.78,6.85,16.23,27.21,25.71,31.8,4.1,1.52,8-1.62,11.58-3.24,6.38-3,17.34-10.54,24.15-7.5,7.32,4.22,1.27,22.39-.3,29.06A162.17,162.17,0,0,1,764,652c7.75,3.17,16.11,4.09,24.36,5,6.1.7,12.15,2.34,18.34,1.92,4.3-.12,8.64-.4,12.91-.94s8.7-1.32,13.08-1.28C836.36,656.71,845.14,658,845.48,662.56Z"/><path class="cls-4" d="M544.06,687.26c-.19,12,.23,24.83-5.66,35.7a99.44,99.44,0,0,1-6.36,8.25c-2.74,3.57-5.55,7.11-8.55,10.47-2.16,2.45-4.29,5.07-7.1,6.8a41.4,41.4,0,0,1-8.31,3.45,36.56,36.56,0,0,1-14.16,2.17c-6.59-.14-13.18-1-19.77-1a30.84,30.84,0,0,0-13.22,3.47,143.08,143.08,0,0,1-36.7,13.17c-21.84,4.39-44.33,3.23-66.47,2.65-15.76-1.11-31.71-2.15-47.4.31-16.62,2.88-33.23,7.17-50.23,6.79-6.78-.23-14.71-.19-20-5-4.53-4.68-1.3-10.28,1-15.14,1.78-4,3.08-8.17,4.63-12.24,2.9-7.3,4.86-15.17,9.65-21.54,5.74-8,14-13.7,21.18-20.28,4.65-4.09,9.36-8.56,11.86-14.34a21.15,21.15,0,0,0,1.16-14.11,26.18,26.18,0,0,0-5.67-11.76c-4.06-4.85-10.59-6.3-16.65-6.43-3.81-.11-7.79.28-11.6.47-3.76,0-8.94.91-11.3-2.75-3-9.17,9.77-31.85,14-40.82,2.56-5.28,5.36-11.06,4.56-17.09-.42-2.9-1.57-6.11-4.18-7.72a9.57,9.57,0,0,0-9.09-.06c-5.6,3.32-9.07,9.25-12.76,14.42-4.51,6.81-9.14,13.74-12.65,21.13A155.88,155.88,0,0,0,217.9,643c-1.26,3.1-6.74,22.59-10.56,20.23-1-1.25-.57-3.1-.72-4.59-.05-2.8,0-5.69.1-8.49.34-10,1.3-20,4-29.66,2-7.51,5-14.75,7.88-22,2.43-6.23,5.1-13.11,2.75-19.76-1.94-7.13-6.43-13.38-7.85-20.67-.81-4.47.18-9.07.87-13.5,2.83-15.78,12.35-29.42,23.4-40.67a495.07,495.07,0,0,1,41.56-37.46C288.58,459,298,448.33,311,449c4.06.37,7.81,2.33,11.06,4.7,6.42,4.67,11.18,11.2,16,17.42a115.36,115.36,0,0,0,14.17,16.1c12.22,11.53,20.73,8.33,35.45,9.77,7.67.8,14.91,3.72,22,6.52a128.79,128.79,0,0,1,24.43,11.57A158.4,158.4,0,0,1,454,528.36c1.37,1.13,3.11,2.4,4.49,3.52.06.06.51.38.56.44l9,15.19c2,1.91,4.24,3.79,6.43,5.51,6.65,5.06,12.93,10.66,19.08,16.31,4.88,4.37,10,8.66,14.17,13.73,3.19,3.82,6.26,7.88,9.58,11.59,3.77,4.29,7.76,8.56,10.83,13.41a78.75,78.75,0,0,1,8.73,18.57,109.51,109.51,0,0,1,2.49,13c.85,5.17,1.53,10.43,1.88,15.66C541.73,666,543.87,676.55,544.06,687.26Z"/></g><g id="レイヤー_4" data-name="レイヤー 4"><path class="cls-5" d="M237.93,415c0,1.14-.55,2.21-.69,3.34a85.27,85.27,0,0,1-1.88,9.23c-.35,1.53-.88,3.63-1.27,5.17A24.41,24.41,0,0,1,229,438c-3,2.13-8.55,7.47-12.21,4.45-2-1.76-3.49-4-5.7-5.55a15.48,15.48,0,0,0-6.88-2.53c-4.22-.6-12.11-2.17-9.94-8.08,1.29-2.87,3-4.11,6.19-3.62a23.34,23.34,0,0,1,6,1.57,36.48,36.48,0,0,0,6.25,1.59c5,1,9.18-.46,13.45-3,2-1.12,4-2.38,5.89-3.69.39-.07,4.75-4.58,5.15-4.93A.85.85,0,0,1,237.93,415Z"/><path class="cls-5" d="M175.59,451.24c.08.56-.41,1-.78,1.3-.59.54-1.22,1.06-1.84,1.56-2.31,1.79-4.58,3.66-7,5.32a12.74,12.74,0,0,1-4.81,2.19,13.88,13.88,0,0,0-4.46.94c-1.58.8-2.9,2-4.46,2.88s-3.17,1.6-4.85,1a4.08,4.08,0,0,1-2.34-2.81,13.78,13.78,0,0,1,.71-5.5,18.81,18.81,0,0,1,4.95-8c2.66-2.34,5.65-4.36,7.94-7.11.29.08,7.09,4.83,7.43,4.71l2.38.51C170.52,448.76,174.59,449.18,175.59,451.24Z"/><path class="cls-5" d="M507.69,429.88a55.68,55.68,0,0,1-.84,9.9,17.84,17.84,0,0,1-2.37,6.82,38.8,38.8,0,0,1-4.12,5.19,9.93,9.93,0,0,1-5.22,3.29c-2.25.48-4.59.26-6.86.66a37.16,37.16,0,0,0-7.38,2.59,50.06,50.06,0,0,0-9,5.49c-1.83,1.12-7.19,5.62-8.87,3.06-.63-1.69,0-3.59.62-5.19a26,26,0,0,1,8.27-9.36c3.66-2.67,9.89-4.41,11.55-9a13.83,13.83,0,0,0,0-5.8c-.36-2.86-.81-5.8-.19-8.65.69-3.61,2.9-6.68,5.44-9.23,1.43-1.37,3-3,5.08-3.27.41,0,.8.17,1.21.17L507,424.05A21.63,21.63,0,0,1,507.69,429.88Z"/><path class="cls-5" d="M550.8,686c-.62,7.84-1.88,19-2.38,26.66-.39,6.22-1.07,12.66-4.23,18.16a135.15,135.15,0,0,1-13.54,19.27c-4.31,6-9.06,11.86-15.09,16.18a22,22,0,0,1-5.87,2.29,35.2,35.2,0,0,1-6.42,1.25c-5.79.26-11.56-.68-17.33-1-7.82-.71-10-.26-16.42,4.3-4,3-8,5.92-12,8.85-3.16,2.23-6.34,4.53-10,5.82A186.11,186.11,0,0,1,422,795.63c-4.18,1-8.43,1.67-12.61,2.65-5.88,1.29-11.87,2.13-17.79,3.28a138.76,138.76,0,0,1-15.9,1.74c-8.14.67-16.29.1-24.41-.48a196.19,196.19,0,0,0-21.14.24,130.09,130.09,0,0,1-29.89-1.44c-4.56-.71-9.19-1.22-13.67-2.36-7.22-1.77-14.22-5-21.78-4.74a65.24,65.24,0,0,1-13.39-.89,53.67,53.67,0,0,1-15-5.83c-1.82-1.06-3.49-2.37-5.26-3.49-2.93-1.87-6-3.57-8.92-5.36-3.75-2.27-7.84-4.59-10.12-8.46a10.77,10.77,0,0,1-1-6.3c.37-4.5,3.16-3.37,6.42-2.68,6.73,1.57,14,2.72,20.7.24a40.07,40.07,0,0,0,8.61-5.67c6.82-5.42,13.23-11.58,20.9-15.82,11.47-6.15,25.25-5,37.19-.85,9.22,3.22,18.12,9,28.27,7.9,10-.31,19.41-4,29.24-5.18a37.72,37.72,0,0,1,16.9,3c7.22,3.14,14.27,6.4,21.82,8.77,7.34,2.76,15.31,4.76,23.14,3.09,8.18-1.32,14.08-7.81,19.48-13.58s9.48-12.67,14.5-18.76a58.59,58.59,0,0,1,18.85-14.85c4.58-2.15,7.54-1.43,9,3.9,1.26,4,1.91,8.16,2.94,12.21a42.15,42.15,0,0,0,2.23,7.3,43.75,43.75,0,0,0,6,8.52c3.21,3.51,6.61,3.63,10.83,1.83a80.26,80.26,0,0,0,11.08-5.66C537.05,727.32,546.35,705.4,550.8,686Z"/><path class="cls-5" d="M843.51,660.13a9.52,9.52,0,0,1-1,3,43.93,43.93,0,0,1-3,5.4,35.45,35.45,0,0,1-14.86,13.75,89.82,89.82,0,0,1-29,10.87c-2.67.63-11.38,1.69-13-.78-.23-.79.57-1.33,1.08-1.78.7-.58,1.45-1.15,2.18-1.69,7.94-6.16,22.84-14.64,22.81-25.92.91-.31,13.82-6.59,14.49-5.83,3.22-.18,6.52-.32,9.75-.3C835.63,657,843.15,656.61,843.51,660.13Z"/></g><g id="レイヤー_3" data-name="レイヤー 3"><path class="cls-6" d="M177.35,426.63c-.38-4.33-5.1-6.69-8.31-3.32-1,1-2.44,1.69-2.54,3.33-.09,4.16-1.27,9.06,1.84,12.5,4,4.27,8.91-.67,9-5.23C183.94,434.06,183.72,425.51,177.35,426.63Z"/><path class="cls-6" d="M239.39,411c-9,1.85-15.69,8.78-21.1,15.78-10.24,11.52,6.88,13.57,5.09,5.24,4.45-5.71,9.46-11.84,16.74-13.79,1,6-.73,12.08-2.5,17.78a3.61,3.61,0,1,0,6.95,1.93,69.8,69.8,0,0,0,2.73-11.31C248.11,420.79,248.33,408.72,239.39,411Z"/><path class="cls-6" d="M497.47,412c-11.3-2.27-18.18,11.09-18.46,20.73,0,3.23-.68,7.39,1.78,9.89,2.28,2,6.2.41,6.18-2.7-2.11-7.14-.18-18.54,7.88-21.15v.08c6.27,1.09,10.79,9.19,10.67,15.18-.24,3.49-1.74,6.69-3.24,9.79a3.62,3.62,0,0,0,1.88,4.74c3.63,1.55,5.28-2.7,6.35-5.39a21.72,21.72,0,0,0-1.32-21.37C506.57,417.3,502.68,413.24,497.47,412Z"/><path class="cls-6" d="M459.25,476c-4.64.46-9.93,7.47-10.71,11.86-.76,2.14.42,4.17,2.26,5.32,1.12.62,2.12,1.56,3.41,1.75a6.34,6.34,0,0,0,5.44-2.27c2.8-1.79,6.06-4.46,5.85-8.1,0-1.33-1-2.21-1.43-3.36A4.59,4.59,0,0,0,459.25,476Z"/><path class="cls-6" d="M843.85,653.42c-7,.39-14,2.13-21.07,2.49-18.22,1.76-36.7,3.37-54.68-.47a227.9,227.9,0,0,0,24.21-36.37c8.87-17.22,17-35,21.73-53.89,6-26.5,7.3-54,2.69-80.77a139.89,139.89,0,0,0-22.18-63.9,163.45,163.45,0,0,0-22-28.06c-14.47-12.1-30.66-22-47.15-31.12C712,353.77,696.8,351.05,682,347.71c-7.43-1.84-14.83-3.78-22.36-5.16-15.29-3.06-30.91.66-45.88,3.88-7.23,1.68-14.56,3.3-21.49,6a77.14,77.14,0,0,0-15,7.61c-7.17,3.67-14.69,7.39-22.66,8.8-6.19-.69-12.66-2.5-19.09-3.06-14.77-2-29.89-4-44.8-2.38a3.63,3.63,0,0,0-1.67-.47c-3.75-.1-7.55-.31-11.23.6-18.5,4.47-35.19,14.9-48.79,28.05-8.34,8.06-17.21,15.76-23.63,25.54-10.48,15.32-23,31.38-22.74,50.85a4.14,4.14,0,0,0,.27,1c-12.38-6.35-24.2-13.63-34.84-22.92-11.94-11.82-22.71-24.95-36.11-35.21a114.39,114.39,0,0,0-40.55-22.24c-6.86-2.4-13.92-5.28-21.31-5.84-12.06-.12-24.34-1.74-36.29.53-7.65,1.93-15.62,2.89-23,5.69-6.15,2.74-12.27,5.62-18.14,8.9a87.64,87.64,0,0,0-11.87,9.35c-10.28,9.7-16.23,22.86-20.43,36.14-.31,1.9-2,3.39-2.15,5.37A3.31,3.31,0,0,0,139,451c-.47,5-.06,10.8,4.13,13.94a66.3,66.3,0,0,0,1.44,12.4c2.56,13.62,9.78,26.34,21.29,34.31a3.12,3.12,0,0,0,1.57.52,4.93,4.93,0,0,0-.39,2.29,42.35,42.35,0,0,0,.51,10.73c2.35,11.18,9.48,20.53,16.67,29.11-13.16,19.62-13.13,44-13.16,66.73-.24,18.83,3.12,37.68,8,55.81,3.39,13.89,8.52,27.85,18.21,38.63a17.76,17.76,0,0,0,.84,5.7c.22.78.44,1.65.76,2.47-6.43-2.82-16.36-7-21.31-2.79-2.43,3.17-1.68,8.4,1.91,10.41a34.12,34.12,0,0,1,3.27,1.6,10.16,10.16,0,0,0-2.85,2.64c-1.48,1.83-3,4.2-2.4,6.65,1.3,5,6.76,6.72,11.09,8.21,1.22.48,2.46.93,3.69,1.37-2.56,4-.27,9.83,3.18,12.86,2.27,2,5.1,3.07,7.52,4.83,6.85,5.49,14.32,11.67,22.23,15.95,7.72,4.88,17.49,7.08,26.42,8.59,5.52,1.15,11.33-.42,16.6,1.86,11.35,4.66,23.11,8.67,35.4,10,19,1.68,38,1.34,57.07,1.56A223.78,223.78,0,0,0,394.17,805c11.34-1.9,22.41-5,33.53-7.87,14.2-3.23,29.33-6,41.44-14.56,3.93-3.53,6.58-8.26,9.19-12.79a.75.75,0,0,1,.06-.13,71.17,71.17,0,0,1,11.3,4c6.52,2,13.69.17,20-1.82a39.57,39.57,0,0,0,20.18-13.92c12.09-14.3,19.15-31.81,22.48-50,3.61,2.4,9.69-4.18,12.57-6.33a18.24,18.24,0,0,0,4.25-5.63,4.63,4.63,0,0,0,.93.81,14.38,14.38,0,0,0,9.07.34,8.4,8.4,0,0,0,5.4,5c8.16,2.77,16.57-.81,24.57-2.49,5.07-.7,10.18-1.26,15.11-2.72a3.66,3.66,0,0,0,2.7-3.43c12.74,4.61,25.84,7,44.17,7,14.57-.24,29.62,1.73,43.71-2.9,5.49-1.86,11.27-3.61,15.86-7.26L731,690a4.11,4.11,0,0,0,.54.44c8.67,5.94,19.27,8,29.56,9.06,14.79,1,29.93-.17,43.91-5.32,12.23-3.49,23.58-9.46,32.76-18.34C842.27,671.79,854.08,656.5,843.85,653.42ZM547.26,690.15c-1.61,25.32-9.73,51.49-28.74,69.16a41.83,41.83,0,0,1-24,8c-4.54-.62-8.47-3.56-13.05-4.25a51.35,51.35,0,0,0,9.45-19.72c.52-3.36,2.61-7.33.88-10.56-1.73-2.57-6.21-1.49-6.48,1.63a61.48,61.48,0,0,1-2.89,12.25,43.25,43.25,0,0,1-7.7,13.21c-2.11,1.93-4.61,3.75-2.88,6.75-2.36,4.06-4.64,8.56-8.53,11.34-11.11,6.52-24,9.35-36.48,12-18.36,4.85-36.82,9.69-55.93,10-21.16.32-42.38.21-63.52-1.06a104.56,104.56,0,0,1-24.61-5.24c-6.62-2.09-13.89-6.61-21.21-6.34-9.05.4-17.82-2.2-26.35-4.92-9-3.95-17.06-9.85-24.52-16.16-1.63-1.3-3.28-2.59-5-3.73-2.79-1.84-6.76-3-7.25-6.84a2.87,2.87,0,0,1,1.91-.8c1,.47,2,1,3,1.55a3.53,3.53,0,0,0,1,.37,3.65,3.65,0,0,0,5.58-3c-.28-4-4-5.92-8-6.15-5.62-2.45-11.62-3.61-16.94-6.8,1.47-2.41,3.93-3,6.61-2.61a3.81,3.81,0,0,0,.8.13,32.37,32.37,0,0,1,9.31,3.89,3.61,3.61,0,0,0,6.53-2.48c-1.2-4.53-7.09-5.83-10.92-7.46a22.41,22.41,0,0,0-3.42-1c-2.24-1.38-4.23-3.16-6.59-4.37,8.29,2.68,16.74,6.14,23.42,11.84,3,2.39,4.79,6.4,8.43,7.92,2.64.83,4.8-1.31,6.38-3.14,3.17-3.31,6.07-6.88,9.29-10.13,3.93-2.81-.32-8.68-4.24-5.85a70.27,70.27,0,0,0-5.73,6c-.15-1-.26-2.1-.47-3.12-2.26-10.91-.92-22,.06-33,.93-11.93,1.64-23.9,3.4-35.85,2.39-14.84,6.77-29.27,11.4-43.54,5.81-16.42,16.09-30.91,27.56-43.87,1.64-1.73,3.28-3.44,5-5.07a3.63,3.63,0,0,0,.11-5.09c-2-2.13-4.84-.84-6.38,1.11-13.41,13.68-25,29.71-32,47.6-7.82,22-13.62,44.82-15.06,68.22-.8,17.17-4.53,34.79-1,51.93a17.48,17.48,0,0,1,.37,2.76,48.65,48.65,0,0,0-13.17-9.41,3.55,3.55,0,0,0,1.24-4.76,20.17,20.17,0,0,1-1.19-4,6.21,6.21,0,0,1,0-2.68,3.58,3.58,0,0,0-1.16-2.65,4.66,4.66,0,0,0-1.75-2.51c-12-14.47-15.75-33.53-19.72-51.43a200.16,200.16,0,0,1-3.71-46.53c.28-13.22.63-26.21,4.83-39a69,69,0,0,1,6.11-12.87c1-1.83,2.51-3.62,2.59-5.79,0-1.81-1.1-3.18-2.19-4.49-2-2.3-3.9-4.68-5.67-7.17-6.59-8.36-11.17-18.56-9.67-29.39a3.7,3.7,0,0,0-3.24-3.17,3.71,3.71,0,0,0-1.37-4.3,55.74,55.74,0,0,1-7.95-7.33c-7.51-9-10.74-20.85-11.44-32.41,0-2.79.24-6.41-3.16-6.88-1.4-2.24-1.16-4.94-1-7.46-.05-.72.62-2.3.45-3.21a3.67,3.67,0,0,0-.18-.76c1-2.46,1.69-5,2.59-7.51,3.29-9.25,7.8-18.16,14.51-25.41,5.6-5.71,12-10.9,19.54-14.07,6.08-3,12.16-6.33,19-7.32,4.67-.83,9.3-2.23,14-3.09,6.23-1.2,13.35-.88,19.79-.6,9.55,0,19.14.2,28.08,4,11,3.89,22.2,7.75,32.05,14.21,17.76,12.08,32.14,27.94,46.91,43.34,17,15.12,37.78,25.63,58.62,34.51,16.81,7.31,34.68,12.23,51.48,20,22.14,11.78,41.17,29.14,57.33,48.28,9,10.9,18.67,21.54,24.87,34.59,11.47,23.73,12,50.57,12.32,76.52A243.27,243.27,0,0,1,547.26,690.15Zm69.86,1A160.5,160.5,0,0,0,596,695.34c-3.26.43-7,1.2-10-.55a1.75,1.75,0,0,1,0-.4c3-1.46,5.84-3.14,8.52-4.38,2.93-1.33,7.38-1.84,6-6.21-2.4-4.82-8.22-.45-11.57,1-4.5,2.33-9,5-14.2,5.63a4.43,4.43,0,0,0-1.54-1c5-4,10.49-7.48,14.74-12.36.56-.62,1.1-1.27,1.64-1.91a3.45,3.45,0,0,0,2.3,1.6c10.48,5.56,19.26,10.18,27.79,13.82A21.72,21.72,0,0,1,617.12,691.16Zm83.44,1.89c-6.62.37-13.29.26-19.94.2-20.62.09-42-.74-60.69-10.62a156.31,156.31,0,0,1-16.64-8.17c-3.2-1.35-6.19-3.66-9.53-4.59,4.61-6.32,8.55-13.14,12.51-19.87,1.9-3.32,3.55-6.74,5.27-10.16.68-1.29,1.56-2.63,1.13-4.15-.62-3-5.13-3.71-6.58-1a235.19,235.19,0,0,1-17.8,30.5c-5,7.55-12.07,13-19.26,18.32-4.24,3-4.9,8.58-8.47,12.15a46.32,46.32,0,0,1-6.7,5.3,4.66,4.66,0,0,0-.45.22c.46-3.43.8-6.88,1-10.33,1.05-12.49.32-25,0-37.53-.09-22.53-2.54-45.53-11.9-66.27-.74-1.66-1.54-3.29-2.38-4.88,1.29-1.12,1.68-3.34,2.2-5.24a3.73,3.73,0,0,0-1.61-5.34c-2.7-1.05-4.25.66-5.16,2.86-6-9.1-13.21-17.33-20.18-25.78,5.56-1.1,10-6.37,13.23-10.94,1.41-2.53,4.22-4.52,4.6-7.49a3.68,3.68,0,0,0-2.18-3.34,3.61,3.61,0,0,0-4.58,1.57c-2.38,3.14-4.52,6.47-7.17,9.41-1.71,1.55-3.5,3.93-6,3.76-1.33-.14-2.68-.6-3.94.13-19.55-21.51-42.72-40.58-70.58-49.78-12.87-5.19-26.2-9.12-38.8-14.95-4.38-1.95-8.73-4-13-6.08a3.45,3.45,0,0,0,2.87-3.89c.48-17.56,12.08-32,21.55-45.95,5.19-7.76,11.93-14.2,18.7-20.57,12.22-12.45,26.73-22.9,43.43-28.38a44.52,44.52,0,0,1,9.32-2.14,17.15,17.15,0,0,1,2,0,3.29,3.29,0,0,0,2.43,1c12.89-1.72,26.18-1.09,39,.83,9.15,1,18.22,2.57,27.27,4.15,5.73.14,11-2.56,16.29-4.57,9.9-3.63,18.2-10.54,28.39-13.54,17.25-4.75,34.91-9.53,53-9.22,12.35,1.21,24.2,5.17,36.29,7.73,11.31,2.24,22.58,5,32.86,10.4,16.57,8.95,32.47,18.77,47.12,30.78a157.09,157.09,0,0,1,21,26.84c5.71,9.53,11.24,19.31,14.68,29.93,5.36,16.85,7,34.55,8.9,52.05a203.13,203.13,0,0,1-6.73,63.25,259.08,259.08,0,0,1-32.84,68c-3.94,5.31-7.89,10.66-12.1,15.8a3.76,3.76,0,0,0-4.6,3.5,3.47,3.47,0,0,0,.34,1.5,110.44,110.44,0,0,1-10.39,10.36c-4.44,3.6-8.9,7.3-13.95,10a16.32,16.32,0,0,1-1.59.62,3.43,3.43,0,0,0-2.2,3.62,31.48,31.48,0,0,1-5.17,3.64C715.8,689.88,708.3,692.4,700.56,693.05Zm38.53-6.54q-1-.56-2-1.17c.39-.26.78-.53,1.18-.78a3.61,3.61,0,0,0,1.38-2c.81-.58,1.59-1.14,2.35-1.6a115,115,0,0,0,21.12-19.39,102.12,102.12,0,0,0,14.81,2.74c20.66,2,41.54-.54,62-3.3C824.37,690.14,767.27,700.35,739.09,686.51Z"/><path class="cls-6" d="M102.31,680.32c-9.56-14.24-15.28-32-12.84-49.2.59-3.7,1.51-9.66,6.18-10.18a3.61,3.61,0,0,1,2,6.83c-3.72,12.81-.36,26.72,5,38.6a78.63,78.63,0,0,0,5.53,9.69C110.79,680,105.17,684.09,102.31,680.32Z"/><path class="cls-6" d="M88.84,691.55c-11-7-29.47-15.85-27.07-31.38,1.07-4.36,7.88-4.86,8.13.16a3.64,3.64,0,0,1-1.31,2.73c2.38,11.53,15.16,16.35,24,22.33C96.57,687.92,93,693.9,88.84,691.55Z"/><path class="cls-6" d="M872.5,525.1a3.66,3.66,0,0,1-1.22-5,45.54,45.54,0,0,0,3.45-7.47,34,34,0,0,0,.54-20.34c-2.48-4.3,3.89-7.88,6.24-3.7,2.18,5,2.29,10.69,2.19,16a43.6,43.6,0,0,1-6.25,19.22A3.65,3.65,0,0,1,872.5,525.1Z"/><path class="cls-6" d="M898.88,533.71a3.65,3.65,0,0,1-1.21-5,81.55,81.55,0,0,0,3.75-7.55A62.32,62.32,0,0,0,906.49,500c.2-3-.55-7.76,3.78-7.85a3.64,3.64,0,0,1,3.58,3.63,71.49,71.49,0,0,1-5.49,27.59,78.35,78.35,0,0,1-4.52,9.14A3.63,3.63,0,0,1,898.88,533.71Z"/><path class="cls-6" d="M613.29,219.46c3.9.36,13,2.65,12.79-3.58a3.65,3.65,0,0,0-4-3.14c-4.11.12-12.62.59-12.86-5.1-.05-1.53,0-3.09.12-4.65,4.06-1.11,8.23-2,11.72-4.25,3.26-3.08-1.17-8.16-4.69-5.44-2.15.69-4.33,1.35-6.49,2a35.32,35.32,0,0,0-.26-6.75c3.13-.68,6.24-1.4,9.28-2.38a3.64,3.64,0,0,0,2-4.68,3.7,3.7,0,0,0-5.19-1.82c-3.85,1-7.78,1.81-11.67,2.7-2.95.67-5.9,1.39-8.83,2.2-2.44.47-5.63,1.66-5.2,4.72a3.67,3.67,0,0,0,2.63,3.11c1.94.82,3.34-.55,5.05-1s3.28-.9,4.93-1.28a52.85,52.85,0,0,1-.19,7.51c-3.85,1.15-7.7,2.29-11.56,3.39-4.15-3.39-10.94,4.68-5.28,7.36,2.6,1.15,5.47,0,8.08-.65,2.79-.77,5.56-1.61,8.32-2.46C602,212.05,603.78,217.76,613.29,219.46Z"/><path class="cls-6" d="M606.11,234.53c0-4.27-6.12-4.91-7.23-.87-1.27,5,1.77,9.84,4,14.11,2.4,4.1,8.5.69,6.31-3.48C607.74,241.22,605.18,238,606.11,234.53Z"/><path class="cls-6" d="M621.39,241.64c-2.39,6.72-5.69,13.1-8.79,19.52a3.62,3.62,0,0,0,1.88,4.73,3.67,3.67,0,0,0,4.74-1.87q3.16-6.48,6.17-13c1.28-3.75,4.51-7.95,2.87-12C626.27,235.24,620.25,237.44,621.39,241.64Z"/><path class="cls-6" d="M646.15,232.83c-2.79-.05-3.9,2.77-3.84,5.15-.52,2.53-.34,5.91,2.84,6.35,4.21.31,4.18-3.64,4.45-6.73A3.73,3.73,0,0,0,646.15,232.83Z"/><path class="cls-6" d="M663.85,229c-3.2-1.89-5.48,1.5-6.59,4.11-1.36,2.65-2.65,7,1.19,8.16,3.94.84,4.34-2.71,5.5-5.43C665.52,233.68,666.62,230.8,663.85,229Z"/><path class="cls-6" d="M530.65,272.84c4.23.39,16.84-.12,14.94-6.73a3.63,3.63,0,0,0-4.68-2c-4.26,2-12.28,3.17-15.26-1.31a51.33,51.33,0,0,1-.45-7.13l5.52-1.82a3.64,3.64,0,0,0,2-4.69,3.68,3.68,0,0,0-4.69-2l-2.5.83c.27-3.09.66-6.18,1.05-9.22a3.37,3.37,0,0,0,.16-3.13l.47-.13a3.61,3.61,0,1,0-1.78-7c-5,1.3-10,2.78-15,4.16-3.75,1.06-7.52,2-11.25,3.17a5,5,0,0,0-2.71,1.62,3.66,3.66,0,0,0,2.78,5.92c6.68-2,13.45-3.88,20.23-5.75-.18.87-.3,1.74-.39,2.53-.44,3.4-.68,6.82-.84,10.24l-4.56,1.52c-2.29.56-4.57,1.84-6.95,1.59-4.66.1-4.8,6.75-.25,7.31,4,.22,7.71-1.65,11.46-2.74C517.5,266.4,521.8,272.09,530.65,272.84Z"/><path class="cls-6" d="M531.44,294.76c-1.17-1.43-2.34-2.83-3.61-4.14a3.65,3.65,0,0,0-3.41-2.52,3.75,3.75,0,0,0-2.34,6.94c2.7,2.09,4.09,6.5,7.78,6.95C534.06,301.74,534.55,297.05,531.44,294.76Z"/><path class="cls-6" d="M546.51,289.5a126.26,126.26,0,0,1-9.3,14.91c-1.84,2.67-6.08,7.06-2,9.78,2.24,1.36,4.73-.12,5.62-2.35a178.24,178.24,0,0,0,10.82-16.56c1.23-2.54,3.09-5.14,2.87-8.07C553.62,281.41,544.31,284.26,546.51,289.5Z"/><path class="cls-6" d="M574,283.45a3.61,3.61,0,1,0,3.57,3.63A3.63,3.63,0,0,0,574,283.45Z"/><path class="cls-6" d="M589.31,281.36a3.64,3.64,0,0,0-4.44,2.5c-.73,3-2.77,7.72,1.4,9a3.61,3.61,0,0,0,4.44-2.5C591.3,287.31,593.56,282.68,589.31,281.36Z"/></g></svg>